# xmcd
#
# Track frame offsets:
#  150
#  10487
#  21680
#  32520
#  41931
#  51218
#  61692
#  72833
#  83715
#  96029
#  107608
#  118302
#  128155
#  138745
#  150689
#  162253
#  171413
#  181241
#  191827
#  201442
#  213225
#  225768
#  237719
#  248197
#  258705
#  268279
#  281040
#  292549
#  302738
#  312362
#  324620
#  336083
#  345711
#
# Disc length: 4753 seconds
#
# Revision: 0
# Processed by: cddbd v1.5.2PL0 Copyright (c) Steve Scherf et al.
# Submitted via: AltoMP3_Maker 3.0
#
DISCID=f7128f21
DTITLE=Various Artist - Capitol Hillbilly, Vol. 2
DYEAR=1900
DGENRE=
TTITLE0=Jimmy Lee - Go Ahead and Go
TTITLE1=Ramblin' Jimmie Dolan - The Wheel That Does the Squeakin'
TTITLE2=Freddie Hart - Loose Talk
TTITLE3=Owen Perry - All Dressed Up (with No Place to Go)
TTITLE4=Roy Hogsed - Too Many Chiefs and Not Enough Indians
TTITLE5=Tommy Faile - Take Me Back down South
TTITLE6=Joe Allison - Domino Gal
TTITLE7=Tommy Collins - You Got to Have a License
TTITLE8=Ferlin Huskey - Mini-Ha-Cha
TTITLE9=Eddie Akridge - Handcuff Our Hearts
TTITLE10=Tennessee Ernie - Fatback Louisiana USA
TTITLE11=Billy Strange - Red
TTITLE12=Roy Hogsed - Roll Em Dice
TTITLE13=Merle Travis - Gambler's Guitar
TTITLE14=Skeets McDonald - I Can't Stand It Any Longer
TTITLE15=Gene O'Quin - No Parkin' Here
TTITLE16=Jimmie Skinner - I Ain't Got Time
TTITLE17=Jess Willard - I'll Wear the Ball and Chain
TTITLE18=Hank Thompson - A Sixpack to Go
TTITLE19=Bill Dudley - Wailin' Wall
TTITLE20=Jack Guthrie - Oklahoma Hills
TTITLE21=The Louvin Bros. - Red Hen Hop
TTITLE22=Texas Bill Strength - When Love Comes Knockin'
TTITLE23=Big Bill Lister - R.C. Cola and Moon Pie
TTITLE24=Faron Young - I'm a Poor Boy
TTITLE25=Skeets McDonald - Big Family Trouble
TTITLE26=Roy Acuff - Sweep around Your Own Back Door
TTITLE27=Jerry Reed - If the Good Lord's Willing
TTITLE28=The Farmer Boys - Flash Crash and Thunder
TTITLE29=Ferlin Huskey - Eli the Camel
TTITLE30=Werley Fairburn - Nothin' but Lovin'
TTITLE31=Gene O'Quin - I'm Gonna Take My Baby Dancin'
TTITLE32=Martha Carson - Bye and Bye
EXTD=
EXTT0=
EXTT1=
EXTT2=
EXTT3=
EXTT4=
EXTT5=
EXTT6=
EXTT7=
EXTT8=
EXTT9=
EXTT10=
EXTT11=
EXTT12=
EXTT13=
EXTT14=
EXTT15=
EXTT16=
EXTT17=
EXTT18=
EXTT19=
EXTT20=
EXTT21=
EXTT22=
EXTT23=
EXTT24=
EXTT25=
EXTT26=
EXTT27=
EXTT28=
EXTT29=
EXTT30=
EXTT31=
EXTT32=
PLAYORDER=
